<svg xmlns="http://www.w3.org/2000/svg" viewBox="0 0 1200 700">
  <defs>
    <linearGradient id="bg" x1="0" y1="0" x2="1" y2="1">
      <stop offset="0%" stop-color="#fbfcfd"/>
      <stop offset="100%" stop-color="#f6f6f6"/>
    </linearGradient>
    <linearGradient id="panel" x1="0" y1="0" x2="0" y2="1">
      <stop offset="0%" stop-color="#eceff3"/>
      <stop offset="100%" stop-color="#f1f3f5"/>
    </linearGradient>
  </defs>

  <rect width="1200" height="700" fill="url(#bg)"/>
  <rect x="36" y="28" width="1128" height="644" rx="28" fill="#f4f6f8" stroke="#d8dee7"/>

  <rect x="36" y="28" width="1128" height="58" rx="28" fill="#eceff3"/>
  <circle cx="66" cy="57" r="6" fill="#abb6c8"/>
  <circle cx="86" cy="57" r="6" fill="#abb6c8"/>
  <circle cx="106" cy="57" r="6" fill="#abb6c8"/>
  <rect x="132" y="48" width="286" height="18" rx="9" fill="#d8dee7"/>
  <rect x="1018" y="46" width="110" height="22" rx="8" fill="#e2e6ed" stroke="#bec6d3"/>

  <rect x="72" y="108" width="1056" height="520" rx="20" fill="url(#panel)" stroke="#c7cfdb"/>
  <text x="98" y="156" fill="#111827" font-family="Inter,Arial,sans-serif" font-size="36" font-weight="700">My Appointments</text>
  <text x="98" y="184" fill="#6b7280" font-family="Inter,Arial,sans-serif" font-size="18">Manage all your booked services</text>

  <rect x="98" y="228" width="1004" height="334" rx="16" fill="#e5e9ef" stroke="#b6c0ce"/>
  <rect x="98" y="228" width="1004" height="58" rx="16" fill="#dde2ea"/>

  <text x="130" y="265" fill="#6b7280" font-family="Inter,Arial,sans-serif" font-size="18" font-weight="700">SERVICE</text>
  <text x="485" y="265" fill="#6b7280" font-family="Inter,Arial,sans-serif" font-size="18" font-weight="700">DATE</text>
  <text x="650" y="265" fill="#6b7280" font-family="Inter,Arial,sans-serif" font-size="18" font-weight="700">TIME</text>
  <text x="850" y="265" fill="#6b7280" font-family="Inter,Arial,sans-serif" font-size="18" font-weight="700">STATUS</text>

  <g fill="#111827" font-family="Inter,Arial,sans-serif" font-size="19" font-weight="700">
    <text x="130" y="356">Haircut &amp; Styling</text>
    <text x="130" y="436">Standard Cleaning</text>
    <text x="130" y="516">Manicure &amp; Pedicure</text>
  </g>

  <g fill="#6b7280" font-family="Inter,Arial,sans-serif" font-size="16">
    <text x="485" y="356">2026-03-18</text><text x="485" y="436">2026-03-18</text><text x="485" y="516">2026-03-17</text>
    <text x="650" y="356">10:45 - 11:30</text><text x="650" y="436">15:00 - 16:00</text><text x="650" y="516">13:00 - 14:30</text>
  </g>

  <g>
    <rect x="840" y="338" width="230" height="48" rx="24" fill="#cad2dd" stroke="#a8b4c6"/>
    <rect x="840" y="418" width="230" height="48" rx="24" fill="#cad2dd" stroke="#a8b4c6"/>
    <rect x="840" y="498" width="230" height="48" rx="24" fill="#cad2dd" stroke="#a8b4c6"/>
    <text x="915" y="368" fill="#374151" font-family="Inter,Arial,sans-serif" font-size="14" font-weight="700">CONFIRMED</text>
    <text x="915" y="448" fill="#374151" font-family="Inter,Arial,sans-serif" font-size="14" font-weight="700">CONFIRMED</text>
    <text x="915" y="528" fill="#374151" font-family="Inter,Arial,sans-serif" font-size="14" font-weight="700">CONFIRMED</text>
  </g>

  <line x1="98" y1="322" x2="1102" y2="322" stroke="#b8c1cf"/>
  <line x1="98" y1="402" x2="1102" y2="402" stroke="#b8c1cf"/>
  <line x1="98" y1="482" x2="1102" y2="482" stroke="#b8c1cf"/>
  <rect x="72" y="590" width="1056" height="1" fill="#b6c0ce" opacity=".6"/>
</svg>
