<svg xmlns="http://www.w3.org/2000/svg" viewBox="0 0 1200 700">
  <defs>
    <linearGradient id="bg" x1="0" y1="0" x2="1" y2="1">
      <stop offset="0%" stop-color="#1a1a1a"/>
      <stop offset="100%" stop-color="#111111"/>
    </linearGradient>
    <linearGradient id="panel" x1="0" y1="0" x2="0" y2="1">
      <stop offset="0%" stop-color="#1f1f1f"/>
      <stop offset="100%" stop-color="#171717"/>
    </linearGradient>
  </defs>

  <rect width="1200" height="700" fill="url(#bg)"/>
  <rect x="36" y="28" width="1128" height="644" rx="28" fill="#1b1b1b" stroke="#303030"/>

  <rect x="36" y="28" width="1128" height="58" rx="28" fill="#1f1f1f"/>
  <circle cx="66" cy="57" r="6" fill="#5a5a5a"/>
  <circle cx="86" cy="57" r="6" fill="#5a5a5a"/>
  <circle cx="106" cy="57" r="6" fill="#5a5a5a"/>
  <rect x="132" y="48" width="286" height="18" rx="9" fill="#303030"/>
  <rect x="1018" y="46" width="110" height="22" rx="8" fill="#2b2b2b" stroke="#454545"/>

  <rect x="72" y="108" width="1056" height="520" rx="20" fill="url(#panel)" stroke="#3a3a3a"/>
  <text x="98" y="156" fill="#f3f4f6" font-family="Inter,Arial,sans-serif" font-size="36" font-weight="700">My Appointments</text>
  <text x="98" y="184" fill="#a3adbc" font-family="Inter,Arial,sans-serif" font-size="18">Manage all your booked services</text>

  <rect x="98" y="228" width="1004" height="334" rx="16" fill="#242424" stroke="#4b4b4b"/>
  <rect x="98" y="228" width="1004" height="58" rx="16" fill="#2e2e2e"/>

  <text x="130" y="265" fill="#acacac" font-family="Inter,Arial,sans-serif" font-size="18" font-weight="700">SERVICE</text>
  <text x="485" y="265" fill="#acacac" font-family="Inter,Arial,sans-serif" font-size="18" font-weight="700">DATE</text>
  <text x="650" y="265" fill="#acacac" font-family="Inter,Arial,sans-serif" font-size="18" font-weight="700">TIME</text>
  <text x="850" y="265" fill="#acacac" font-family="Inter,Arial,sans-serif" font-size="18" font-weight="700">STATUS</text>

  <g fill="#edf1f7" font-family="Inter,Arial,sans-serif" font-size="19" font-weight="700">
    <text x="130" y="356">Haircut &amp; Styling</text>
    <text x="130" y="436">Standard Cleaning</text>
    <text x="130" y="516">Manicure &amp; Pedicure</text>
  </g>

  <g fill="#c9c9c9" font-family="Inter,Arial,sans-serif" font-size="16">
    <text x="485" y="356">2026-03-18</text><text x="485" y="436">2026-03-18</text><text x="485" y="516">2026-03-17</text>
    <text x="650" y="356">10:45 - 11:30</text><text x="650" y="436">15:00 - 16:00</text><text x="650" y="516">13:00 - 14:30</text>
  </g>

  <g>
    <rect x="840" y="338" width="230" height="48" rx="24" fill="#383838" stroke="#5c5c5c"/>
    <rect x="840" y="418" width="230" height="48" rx="24" fill="#383838" stroke="#5c5c5c"/>
    <rect x="840" y="498" width="230" height="48" rx="24" fill="#383838" stroke="#5c5c5c"/>
    <text x="915" y="368" fill="#e7edf6" font-family="Inter,Arial,sans-serif" font-size="14" font-weight="700">CONFIRMED</text>
    <text x="915" y="448" fill="#e7edf6" font-family="Inter,Arial,sans-serif" font-size="14" font-weight="700">CONFIRMED</text>
    <text x="915" y="528" fill="#e7edf6" font-family="Inter,Arial,sans-serif" font-size="14" font-weight="700">CONFIRMED</text>
  </g>

  <line x1="98" y1="322" x2="1102" y2="322" stroke="#4a4a4a"/>
  <line x1="98" y1="402" x2="1102" y2="402" stroke="#4a4a4a"/>
  <line x1="98" y1="482" x2="1102" y2="482" stroke="#4a4a4a"/>
  <rect x="72" y="590" width="1056" height="1" fill="#4b4b4b" opacity=".6"/>
</svg>
